<svg xmlns="http://www.w3.org/2000/svg" xmlns:xlink="http://www.w3.org/1999/xlink" width="2000" zoomAndPan="magnify" viewBox="0 0 1500 1499.999933" height="2000" preserveAspectRatio="xMidYMid meet" version="1.0"><defs><filter x="0%" y="0%" width="100%" height="100%" id="04cefa66ed"><feColorMatrix values="0 0 0 0 1 0 0 0 0 1 0 0 0 0 1 0 0 0 1 0" color-interpolation-filters="sRGB"/></filter><g/><clipPath id="8c3d251755"><rect x="0" width="767" y="0" height="1149"/></clipPath><clipPath id="96c1e5cfe4"><path d="M 93.265625 1136 L 751 1136 L 751 1410.1875 L 93.265625 1410.1875 Z M 93.265625 1136 " clip-rule="nonzero"/></clipPath><mask id="336bd1ba5c"><g filter="url(#04cefa66ed)"><rect x="-150" width="1800" fill="#000000" y="-149.999993" height="1799.99992" fill-opacity="0.75"/></g></mask><clipPath id="cf2b2888dc"><path d="M 0.359375 1 L 657.238281 1 L 657.238281 274.1875 L 0.359375 274.1875 Z M 0.359375 1 " clip-rule="nonzero"/></clipPath><clipPath id="0ed9be953f"><rect x="0" width="658" y="0" height="275"/></clipPath><clipPath id="0f135b8850"><path d="M 750 1136 L 1406.515625 1136 L 1406.515625 1410.1875 L 750 1410.1875 Z M 750 1136 " clip-rule="nonzero"/></clipPath><mask id="679d2bb987"><g filter="url(#04cefa66ed)"><rect x="-150" width="1800" fill="#000000" y="-149.999993" height="1799.99992" fill-opacity="0.75"/></g></mask><clipPath id="56976eb087"><path d="M 0 1 L 656.515625 1 L 656.515625 274.1875 L 0 274.1875 Z M 0 1 " clip-rule="nonzero"/></clipPath><clipPath id="6bfd1b2858"><rect x="0" width="657" y="0" height="275"/></clipPath><clipPath id="810ae55240"><path d="M 148 1000 L 751 1000 L 751 1410.1875 L 148 1410.1875 Z M 148 1000 " clip-rule="nonzero"/></clipPath><mask id="cbbdce7b74"><g filter="url(#04cefa66ed)"><rect x="-150" width="1800" fill="#000000" y="-149.999993" height="1799.99992" fill-opacity="0.75"/></g></mask><clipPath id="c6d0979b5c"><path d="M 0.078125 1 L 602.238281 1 L 602.238281 410.1875 L 0.078125 410.1875 Z M 0.078125 1 " clip-rule="nonzero"/></clipPath><clipPath id="467411b66d"><rect x="0" width="603" y="0" height="411"/></clipPath><clipPath id="ce54939d32"><path d="M 750 1000 L 1352 1000 L 1352 1410.1875 L 750 1410.1875 Z M 750 1000 " clip-rule="nonzero"/></clipPath><mask id="e1937ec2e4"><g filter="url(#04cefa66ed)"><rect x="-150" width="1800" fill="#000000" y="-149.999993" height="1799.99992" fill-opacity="0.75"/></g></mask><clipPath id="7169b19923"><path d="M 0 1 L 601.917969 1 L 601.917969 410.1875 L 0 410.1875 Z M 0 1 " clip-rule="nonzero"/></clipPath><clipPath id="7b1fddb24c"><rect x="0" width="602" y="0" height="411"/></clipPath><clipPath id="616fc844b6"><path d="M 231 899.4375 L 751 899.4375 L 751 1410.1875 L 231 1410.1875 Z M 231 899.4375 " clip-rule="nonzero"/></clipPath><mask id="c5fe877b67"><g filter="url(#04cefa66ed)"><rect x="-150" width="1800" fill="#000000" y="-149.999993" height="1799.99992" fill-opacity="0.75"/></g></mask><clipPath id="640991ed43"><path d="M 1 0.4375 L 519.238281 0.4375 L 519.238281 511.1875 L 1 511.1875 Z M 1 0.4375 " clip-rule="nonzero"/></clipPath><clipPath id="2a2f8f314d"><rect x="0" width="520" y="0" height="512"/></clipPath><clipPath id="2d7babf3ae"><path d="M 750 899.4375 L 1269 899.4375 L 1269 1410.1875 L 750 1410.1875 Z M 750 899.4375 " clip-rule="nonzero"/></clipPath><mask id="d092e92cc3"><g filter="url(#04cefa66ed)"><rect x="-150" width="1800" fill="#000000" y="-149.999993" height="1799.99992" fill-opacity="0.75"/></g></mask><clipPath id="7b0c898382"><path d="M 0 0.4375 L 518 0.4375 L 518 511.1875 L 0 511.1875 Z M 0 0.4375 " clip-rule="nonzero"/></clipPath><clipPath id="e51bfdbe96"><rect x="0" width="519" y="0" height="512"/></clipPath></defs><g transform="matrix(1, 0, 0, 1, 367, 147)"><g clip-path="url(#8c3d251755)"><g fill="#ffcc00" fill-opacity="1"><g transform="translate(0.352463, 823.196833)"><g><path d="M 401.578125 -767.578125 C 361.796875 -767.578125 333.300781 -761.265625 316.09375 -748.640625 C 298.882812 -736.023438 290.28125 -710.597656 290.28125 -672.359375 L 290.28125 -96.375 C 290.28125 -80.3125 293.53125 -68.835938 300.03125 -61.953125 C 306.53125 -55.066406 317.429688 -51.625 332.734375 -51.625 L 503.6875 -51.625 C 543.46875 -51.625 576.359375 -56.785156 602.359375 -67.109375 C 628.367188 -77.441406 650.742188 -94.269531 669.484375 -117.59375 C 688.222656 -140.925781 706.390625 -174.007812 723.984375 -216.84375 L 743.484375 -209.96875 L 676.9375 0 L 48.1875 0 L 48.1875 -20.65625 L 56.21875 -20.65625 C 95.226562 -20.65625 123.335938 -27.535156 140.546875 -41.296875 C 157.753906 -55.066406 166.359375 -79.929688 166.359375 -115.890625 L 166.359375 -673.5 C 166.359375 -708.6875 157.367188 -733.160156 139.390625 -746.921875 C 121.421875 -760.691406 93.316406 -767.578125 55.078125 -767.578125 L 48.1875 -767.578125 L 48.1875 -788.234375 L 401.578125 -788.234375 Z M 401.578125 -767.578125 "/></g></g></g></g></g><g clip-path="url(#96c1e5cfe4)"><g mask="url(#336bd1ba5c)"><g transform="matrix(1, 0, 0, 1, 93, 1136)"><g clip-path="url(#0ed9be953f)"><g clip-path="url(#cf2b2888dc)"><path fill="#ffcc00" d="M 0.722656 1.414062 L 35.335938 41.882812 L 54.546875 95.527344 C 54.546875 95.527344 213.046875 75.273438 363.671875 119.898438 C 514.296875 164.535156 657.039062 274.054688 657.039062 274.054688 C 657.039062 274.054688 550.253906 142.933594 386.175781 74.777344 C 222.089844 6.617188 0.722656 1.414062 0.722656 1.414062 Z M 0.722656 1.414062 " fill-opacity="1" fill-rule="nonzero"/></g></g></g></g></g><g clip-path="url(#0f135b8850)"><g mask="url(#679d2bb987)"><g transform="matrix(1, 0, 0, 1, 750, 1136)"><g clip-path="url(#6bfd1b2858)"><g clip-path="url(#56976eb087)"><path fill="#ffcc00" d="M 656.351562 1.414062 L 621.742188 41.882812 L 602.53125 95.527344 C 602.53125 95.527344 444.03125 75.273438 293.40625 119.898438 C 142.777344 164.535156 0.0390625 274.054688 0.0390625 274.054688 C 0.0390625 274.054688 106.824219 142.933594 270.902344 74.777344 C 434.984375 6.617188 656.351562 1.414062 656.351562 1.414062 Z M 656.351562 1.414062 " fill-opacity="1" fill-rule="nonzero"/></g></g></g></g></g><g clip-path="url(#810ae55240)"><g mask="url(#cbbdce7b74)"><g transform="matrix(1, 0, 0, 1, 148, 1000)"><g clip-path="url(#467411b66d)"><g clip-path="url(#c6d0979b5c)"><path fill="#ffcc00" d="M 0.414062 1.59375 C 0.414062 1.59375 16.109375 28.214844 24.835938 55.007812 C 33.566406 81.804688 35.328125 108.777344 35.328125 108.777344 C 35.328125 108.777344 197.933594 119.007812 339.609375 194.324219 C 481.289062 269.640625 602.039062 410.054688 602.039062 410.054688 C 602.039062 410.054688 510.234375 256.855469 359.832031 154.742188 C 209.425781 52.628906 0.414062 1.59375 0.414062 1.59375 Z M 0.414062 1.59375 " fill-opacity="1" fill-rule="nonzero"/></g></g></g></g></g><g clip-path="url(#ce54939d32)"><g mask="url(#e1937ec2e4)"><g transform="matrix(1, 0, 0, 1, 750, 1000)"><g clip-path="url(#7b1fddb24c)"><g clip-path="url(#7169b19923)"><path fill="#ffcc00" d="M 601.664062 1.59375 C 601.664062 1.59375 585.964844 28.214844 577.238281 55.007812 C 568.515625 81.804688 566.746094 108.777344 566.746094 108.777344 C 566.746094 108.777344 404.144531 119.007812 262.46875 194.324219 C 120.789062 269.640625 0.0390625 410.054688 0.0390625 410.054688 C 0.0390625 410.054688 91.84375 256.855469 242.246094 154.742188 C 392.648438 52.628906 601.664062 1.59375 601.664062 1.59375 Z M 601.664062 1.59375 " fill-opacity="1" fill-rule="nonzero"/></g></g></g></g></g><g clip-path="url(#616fc844b6)"><g mask="url(#c5fe877b67)"><g transform="matrix(1, 0, 0, 1, 231, 899)"><g clip-path="url(#2a2f8f314d)"><g clip-path="url(#640991ed43)"><path fill="#ffcc00" d="M 1.304688 0.429688 C 1.304688 0.429688 12.832031 26.25 16.566406 54.1875 C 20.300781 82.117188 16.238281 112.160156 16.238281 112.160156 C 16.238281 112.160156 174.300781 151.65625 300 251.378906 C 425.703125 351.101562 519.039062 511.054688 519.039062 511.054688 C 519.039062 511.054688 468.085938 343.511719 338.652344 215.859375 C 209.214844 88.195312 1.304688 0.429688 1.304688 0.429688 Z M 1.304688 0.429688 " fill-opacity="1" fill-rule="nonzero"/></g></g></g></g></g><g clip-path="url(#2d7babf3ae)"><g mask="url(#d092e92cc3)"><g transform="matrix(1, 0, 0, 1, 750, 899)"><g clip-path="url(#e51bfdbe96)"><g clip-path="url(#7b0c898382)"><path fill="#ffcc00" d="M 517.773438 0.429688 C 517.773438 0.429688 506.242188 26.25 502.507812 54.1875 C 498.78125 82.117188 502.832031 112.160156 502.832031 112.160156 C 502.832031 112.160156 344.773438 151.65625 219.078125 251.378906 C 93.375 351.101562 0.0390625 511.054688 0.0390625 511.054688 C 0.0390625 511.054688 50.992188 343.511719 180.425781 215.859375 C 309.863281 88.195312 517.773438 0.429688 517.773438 0.429688 Z M 517.773438 0.429688 " fill-opacity="1" fill-rule="nonzero"/></g></g></g></g></g></svg>